<?xml version="1.0" encoding="UTF-8"?>
<svg width="457px" height="457px" viewBox="0 0 457 457" version="1.1" xmlns="http://www.w3.org/2000/svg" xmlns:xlink="http://www.w3.org/1999/xlink">
    <title>calendly</title>
    <g id="Page-1" stroke="none" stroke-width="1" fill="none" fill-rule="evenodd">
        <g id="calendly" transform="translate(0.000000, -0.000000)" fill-rule="nonzero">
            <path d="M313.15,296.16 C298.36,309.02 279.96,325.02 246.44,325.02 L226.43,325.02 C202.21,325.02 180.18,316.4 164.42,300.74 C149.03,285.44 140.53,264.52 140.53,241.8 L140.53,214.93 C140.53,192.21 149.01,171.27 164.42,155.99 C180.19,140.33 202.21,131.71 226.43,131.71 L246.44,131.71 C279.95,131.71 298.36,147.71 313.15,160.57 C328.49,173.91 341.74,185.43 377.04,185.43 C382.52,185.43 387.9,185 393.13,184.17 C393.09,184.06 393.05,183.97 393.01,183.87 C390.91,178.77 388.44,173.75 385.59,168.91 L361.99,128.81 C340.34,92.01 300.31,69.35 257.01,69.35 L209.8,69.35 C166.5,69.35 126.47,92.02 104.82,128.81 L81.22,168.91 C59.57,205.71 59.57,251.03 81.22,287.82 L104.82,327.92 C126.47,364.72 166.5,387.37 209.8,387.37 L257.01,387.37 C300.31,387.37 340.34,364.7 361.99,327.92 L385.59,287.82 C388.44,282.97 390.91,277.97 393.01,272.87 C393.05,272.76 393.09,272.67 393.13,272.57 C387.9,271.74 382.54,271.31 377.04,271.31 C341.75,271.3 328.49,282.82 313.15,296.16 Z" id="Path" fill="#3664AE"></path>
            <path d="M246.45,156.04 L226.44,156.04 C189.58,156.04 165.35,181.87 165.35,214.93 L165.35,241.8 C165.35,274.86 189.57,300.69 226.44,300.69 L246.45,300.69 C300.16,300.69 295.94,246.97 377.04,246.97 C384.81,246.97 392.49,247.67 399.96,249.03 C402.42,235.37 402.42,221.39 399.96,207.72 C392.48,209.08 384.81,209.78 377.04,209.78 C295.94,209.77 300.16,156.04 246.45,156.04 Z" id="Path" fill="#3664AE"></path>
            <path d="M446.54,268.64 C432.69,258.62 416.8,252.08 399.95,249 C399.92,249.13 399.91,249.26 399.88,249.39 C398.44,257.26 396.19,265.01 393.11,272.53 C407.33,274.79 420.43,280.03 431.63,288.08 C431.59,288.2 431.56,288.32 431.52,288.45 C425.06,309.02 415.32,328.41 402.59,346.05 C390.01,363.47 374.8,378.81 357.37,391.62 C321.19,418.24 278.1,432.3 232.74,432.3 C204.66,432.3 177.43,426.91 151.8,416.28 C127.05,406.01 104.81,391.3 85.69,372.55 C66.58,353.8 51.59,331.99 41.12,307.7 C30.29,282.56 24.79,255.85 24.79,228.3 C24.79,200.75 30.29,174.04 41.12,148.9 C51.59,124.62 66.58,102.8 85.69,84.05 C104.8,65.3 127.04,50.6 151.8,40.32 C177.42,29.69 204.65,24.3 232.74,24.3 C278.1,24.3 321.19,38.36 357.37,64.98 C374.8,77.8 390,93.13 402.59,110.55 C415.32,128.2 425.06,147.59 431.52,168.15 C431.56,168.28 431.6,168.4 431.63,168.52 C420.44,176.56 407.33,181.82 393.11,184.07 C396.19,191.6 398.45,199.37 399.88,207.24 C399.91,207.37 399.92,207.49 399.95,207.62 C416.8,204.54 432.68,198 446.54,187.98 C459.82,178.34 457.25,167.45 455.23,160.99 C425.96,67.78 337.43,0 232.75,0 C104.2,0 0,102.22 0,228.32 C0,354.42 104.21,456.64 232.75,456.64 C337.43,456.64 425.96,388.85 455.23,295.59 C457.26,289.17 459.84,278.29 446.54,268.64 Z" id="Path" fill="#3664AE"></path>
            <path d="M393.13,184.14 C387.9,184.97 382.54,185.4 377.04,185.4 C341.75,185.4 328.49,173.88 313.15,160.54 C298.36,147.68 279.96,131.68 246.44,131.68 L226.43,131.68 C202.21,131.68 180.18,140.3 164.42,155.96 C149.03,171.26 140.53,192.18 140.53,214.9 L140.53,241.77 C140.53,264.49 149.01,285.43 164.42,300.71 C180.19,316.37 202.21,324.99 226.43,324.99 L246.44,324.99 C279.95,324.99 298.36,308.98 313.15,296.13 C328.49,282.79 341.74,271.27 377.04,271.27 C382.52,271.27 387.9,271.7 393.13,272.53 C396.21,265.01 398.45,257.25 399.9,249.39 C399.93,249.26 399.94,249.13 399.97,249 C392.49,247.64 384.82,246.94 377.05,246.94 C295.95,246.94 300.17,300.66 246.46,300.66 L226.45,300.66 C189.59,300.66 165.36,274.83 165.36,241.77 L165.36,214.9 C165.36,181.84 189.58,156.01 226.45,156.01 L246.46,156.01 C300.17,156.01 295.96,209.73 377.05,209.73 C384.82,209.73 392.5,209.03 399.97,207.67 C399.94,207.54 399.93,207.42 399.9,207.29 C398.47,199.44 396.21,191.68 393.13,184.14 Z" id="Path" fill="#5FC2D6"></path>
            <path d="M393.13,184.14 C387.9,184.97 382.54,185.4 377.04,185.4 C341.75,185.4 328.49,173.88 313.15,160.54 C298.36,147.68 279.96,131.68 246.44,131.68 L226.43,131.68 C202.21,131.68 180.18,140.3 164.42,155.96 C149.03,171.26 140.53,192.18 140.53,214.9 L140.53,241.77 C140.53,264.49 149.01,285.43 164.42,300.71 C180.19,316.37 202.21,324.99 226.43,324.99 L246.44,324.99 C279.95,324.99 298.36,308.98 313.15,296.13 C328.49,282.79 341.74,271.27 377.04,271.27 C382.52,271.27 387.9,271.7 393.13,272.53 C396.21,265.01 398.45,257.25 399.9,249.39 C399.93,249.26 399.94,249.13 399.97,249 C392.49,247.64 384.82,246.94 377.05,246.94 C295.95,246.94 300.17,300.66 246.46,300.66 L226.45,300.66 C189.59,300.66 165.36,274.83 165.36,241.77 L165.36,214.9 C165.36,181.84 189.58,156.01 226.45,156.01 L246.46,156.01 C300.17,156.01 295.96,209.73 377.05,209.73 C384.82,209.73 392.5,209.03 399.97,207.67 C399.94,207.54 399.93,207.42 399.9,207.29 C398.47,199.44 396.21,191.68 393.13,184.14 Z" id="Path" fill="#5FC2D6"></path>
        </g>
    </g>
</svg>