<svg width="125" height="123" viewBox="0 0 125 123" fill="none" xmlns="http://www.w3.org/2000/svg">
<path fill-rule="evenodd" clip-rule="evenodd" d="M62.5517 0C27.9622 0 0 28.1645 0 63.0079C0 90.8601 17.9164 114.436 42.7711 122.781C45.8786 123.408 47.0169 121.425 47.0169 119.757C47.0169 118.296 46.9144 113.289 46.9144 108.072C29.5141 111.829 25.8906 100.561 25.8906 100.561C23.0942 93.2592 18.9509 91.3824 18.9509 91.3824C13.2558 87.5226 19.3658 87.5226 19.3658 87.5226C25.6832 87.9399 28.9981 93.9902 28.9981 93.9902C34.5895 103.587 43.5995 100.875 47.2243 99.2058C47.7416 95.1373 49.3996 92.3208 51.1602 90.7564C37.2821 89.2957 22.6807 83.8714 22.6807 59.6691C22.6807 52.7842 25.1646 47.1513 29.1005 42.7704C28.4795 41.206 26.3041 34.7371 29.7228 26.0791C29.7228 26.0791 35.0043 24.4097 46.9131 32.5467C52.0117 31.1675 57.2698 30.4659 62.5517 30.46C67.8333 30.46 73.2173 31.191 78.189 32.5467C90.0991 24.4097 95.3807 26.0791 95.3807 26.0791C98.7993 34.7371 96.6226 41.206 96.0017 42.7704C100.041 47.1513 102.423 52.7842 102.423 59.6691C102.423 83.8714 87.8213 89.1907 73.8395 90.7564C76.1186 92.7382 78.0853 96.493 78.0853 102.44C78.0853 110.889 77.9829 117.67 77.9829 119.756C77.9829 121.425 79.1224 123.408 82.2286 122.782C107.083 114.435 125 90.8601 125 63.0079C125.102 28.1645 97.0375 0 62.5517 0Z" fill="white"/>
</svg>
