<svg width="50" height="50" viewBox="0 0 50 50" fill="none" xmlns="http://www.w3.org/2000/svg">
<path fill-rule="evenodd" clip-rule="evenodd" d="M25.0207 0C11.1849 0 0 11.2658 0 25.2032C0 36.344 7.16655 45.7745 17.1084 49.1123C18.3514 49.3632 18.8067 48.57 18.8067 47.9028C18.8067 47.3185 18.7658 45.3157 18.7658 43.229C11.8056 44.7314 10.3562 40.2246 10.3562 40.2246C9.23769 37.3037 7.58037 36.553 7.58037 36.553C5.30231 35.009 7.7463 35.009 7.7463 35.009C10.2733 35.176 11.5992 37.5961 11.5992 37.5961C13.8358 41.4347 17.4398 40.3501 18.8897 39.6823C19.0966 38.0549 19.7599 36.9283 20.4641 36.3026C14.9128 35.7183 9.07227 33.5486 9.07227 23.8677C9.07227 21.1137 10.0658 18.8605 11.6402 17.1082C11.3918 16.4824 10.5217 13.8948 11.8891 10.4316C11.8891 10.4316 14.0017 9.76388 18.7653 13.0187C20.8047 12.467 22.9079 12.1863 25.0207 12.184C27.1333 12.184 29.2869 12.4764 31.2756 13.0187C36.0396 9.76388 38.1523 10.4316 38.1523 10.4316C39.5197 13.8948 38.6491 16.4824 38.4007 17.1082C40.0165 18.8605 40.9691 21.1137 40.9691 23.8677C40.9691 33.5486 35.1285 35.6763 29.5358 36.3026C30.4475 37.0953 31.2341 38.5972 31.2341 40.9758C31.2341 44.3556 31.1931 47.0681 31.1931 47.9023C31.1931 48.57 31.649 49.3632 32.8914 49.1128C42.8333 45.774 49.9999 36.344 49.9999 25.2032C50.0409 11.2658 38.815 0 25.0207 0Z" fill="#24292F"/>
</svg>
