<svg width="173" height="173" viewBox="0 0 173 173" fill="none" xmlns="http://www.w3.org/2000/svg">
<mask id="mask0_15_51" style="mask-type:luminance" maskUnits="userSpaceOnUse" x="0" y="0" width="173" height="173">
<path d="M50.6757 0.599C41.4719 1.0334 35.1858 2.50761 29.6926 4.66004C24.0061 6.87688 19.1857 9.84777 14.3905 14.6627C9.58957 19.4804 6.64124 24.3093 4.44127 30.0015C2.31126 35.5087 0.867882 41.7979 0.461453 51.0073C0.057931 60.2337 -0.0346067 63.1764 0.0103732 86.6654C0.0551802 110.152 0.158842 113.1 0.598815 122.329C1.03877 131.53 2.50747 137.814 4.65989 143.31C6.87953 148.996 9.84738 153.814 14.665 158.612C19.4799 163.41 24.3116 166.356 30.0065 168.559C35.508 170.686 41.7999 172.135 51.0065 172.538C60.2327 172.945 63.1781 173.034 86.6612 172.99C110.155 172.945 113.101 172.841 122.327 172.404C131.531 171.964 137.811 170.49 143.31 168.343C148.997 166.117 153.817 163.155 158.612 158.337C163.408 153.522 166.356 148.691 168.556 142.996C170.686 137.494 172.135 131.202 172.536 122.001C172.939 112.769 173.035 109.821 172.99 86.3346C172.945 62.8457 172.839 59.9029 172.401 50.6795C171.964 41.47 170.49 35.1892 168.34 29.6904C166.118 24.0039 163.153 19.1889 158.338 14.388C153.523 9.59272 148.691 6.63869 142.996 4.44425C137.492 2.31423 131.203 0.862427 121.996 0.464458C112.77 0.055278 109.825 -0.0343533 86.3333 0.010471C62.8475 0.0552953 59.902 0.156223 50.6757 0.599ZM51.6848 156.97C43.2516 156.602 38.6723 155.201 35.6202 154.027C31.5788 152.463 28.695 150.588 25.6597 147.575C22.6301 144.551 20.7495 141.676 19.1717 137.643C17.9861 134.59 16.5597 130.017 16.1645 121.583C15.7357 112.466 15.6377 109.731 15.5956 86.6345C15.5507 63.5436 15.6347 60.8081 16.0328 51.6828C16.3942 43.2552 17.8041 38.6701 18.9755 35.6208C20.5393 31.5738 22.4086 28.6954 25.4271 25.6602C28.451 22.625 31.3265 20.75 35.3623 19.1721C38.4115 17.981 42.9854 16.5656 51.4157 16.1649C60.5382 15.7332 63.2706 15.6408 86.3613 15.596C109.457 15.551 112.193 15.6324 121.318 16.0332C129.746 16.4003 134.331 17.796 137.377 18.9759C141.421 20.5398 144.305 22.4035 147.338 25.4276C150.37 28.4517 152.251 31.3216 153.828 35.3658C155.019 38.4066 156.435 42.9861 156.833 51.4137C157.267 60.5363 157.365 63.2717 157.407 86.3627C157.452 109.459 157.368 112.195 156.967 121.314C156.6 129.747 155.202 134.33 154.025 137.385C152.461 141.423 150.591 144.307 147.57 147.343C144.549 150.367 141.674 152.253 137.635 153.831C134.591 155.019 130.012 156.437 121.587 156.838C112.465 157.267 109.732 157.365 86.6332 157.407C63.5425 157.452 60.81 157.365 51.6848 156.97ZM122.201 40.262C122.212 45.9906 126.87 50.629 132.599 50.6178C138.33 50.6066 142.968 45.9514 142.96 40.2228C142.949 34.4941 138.291 29.853 132.559 29.8643C126.828 29.8754 122.19 34.5334 122.201 40.262ZM42.0859 86.584C42.1334 111.116 62.0572 130.958 86.5827 130.911C111.111 130.863 130.965 110.945 130.917 86.4131C130.869 61.89 110.943 42.0361 86.4118 42.0837C61.8861 42.1314 42.0381 62.0582 42.0859 86.584ZM57.6654 86.5532C57.6374 70.6314 70.5238 57.6973 86.4426 57.6692C102.364 57.6384 115.301 70.5193 115.332 86.4439C115.363 102.369 102.476 115.3 86.5519 115.331C70.6331 115.362 57.6962 102.478 57.6654 86.5532Z" fill="white"/>
</mask>
<g mask="url(#mask0_15_51)">
<mask id="mask1_15_51" style="mask-type:luminance" maskUnits="userSpaceOnUse" x="-7" y="-7" width="187" height="188">
<path d="M179.85 -6.77452H-6.98999V180.068H179.85V-6.77452Z" fill="white"/>
</mask>
<g mask="url(#mask1_15_51)">
<mask id="mask2_15_51" style="mask-type:luminance" maskUnits="userSpaceOnUse" x="-8" y="-8" width="189" height="189">
<path d="M180.715 -7.6396H-7.85498V180.933H180.715V-7.6396Z" fill="white"/>
</mask>
<g mask="url(#mask2_15_51)">
<mask id="mask3_15_51" style="mask-type:luminance" maskUnits="userSpaceOnUse" x="-8" y="-8" width="189" height="189">
<path d="M180.715 -7.6396H-7.85498V180.933H180.715V-7.6396Z" fill="white"/>
</mask>
<g mask="url(#mask3_15_51)">
<rect x="-7.9165" y="-7.66736" width="188.667" height="188.667" fill="white"/>
</g>
</g>
</g>
</g>
</svg>
