<svg width="127" height="128" viewBox="0 0 127 128" fill="none" xmlns="http://www.w3.org/2000/svg">
<path d="M0 9.14065C0 4.09377 4.19503 4.62289e-07 9.37013 4.62289e-07H117.428C122.603 4.62289e-07 126.798 4.09377 126.798 9.14065V118.462C126.798 123.51 122.603 127.602 117.428 127.602H9.37013C4.19503 127.602 0 123.51 0 118.462V9.14065Z" fill="white"/>
<path fill-rule="evenodd" clip-rule="evenodd" d="M38.4364 106.817V49.197H19.2847V106.817H38.4364ZM28.8605 41.33C35.5391 41.33 39.6959 36.9054 39.6959 31.376C39.5715 25.7222 35.5391 21.4204 28.9872 21.4204C22.436 21.4204 18.1526 25.7222 18.1526 31.376C18.1526 36.9054 22.3086 41.33 28.7357 41.33H28.8605Z" fill="#006699"/>
<path fill-rule="evenodd" clip-rule="evenodd" d="M49.0337 106.817H68.1852V74.6394C68.1852 72.9173 68.3097 71.1969 68.8154 69.9659C70.1999 66.5252 73.3511 62.9617 78.6418 62.9617C85.5719 62.9617 88.3441 68.2455 88.3441 75.9915V106.817H107.494V73.7784C107.494 56.0802 98.0457 47.8449 85.4454 47.8449C75.1136 47.8449 70.5779 53.6198 68.0578 57.5533H68.1857V49.197H49.0342C49.2855 54.6036 49.0337 106.817 49.0337 106.817Z" fill="#006699"/>
</svg>
