<svg width="76" height="77" viewBox="0 0 76 77" fill="none" xmlns="http://www.w3.org/2000/svg">
<path d="M0 5.46191C0 2.44619 2.50671 -1.86563e-05 5.59906 -1.86563e-05H70.1682C73.2605 -1.86563e-05 75.7673 2.44619 75.7673 5.46191V70.7861C75.7673 73.8028 73.2605 76.248 70.1682 76.248H5.59906C2.50671 76.248 0 73.8028 0 70.7861V5.46191Z" fill="#006699"/>
<path fill-rule="evenodd" clip-rule="evenodd" d="M22.9674 63.8275V29.3972H11.5234V63.8275H22.9674ZM17.2454 24.6964C21.2361 24.6964 23.72 22.0525 23.72 18.7484C23.6456 15.37 21.2361 12.7995 17.3211 12.7995C13.4064 12.7995 10.8469 15.37 10.8469 18.7484C10.8469 22.0525 13.3303 24.6964 17.1708 24.6964H17.2454Z" fill="white"/>
<path fill-rule="evenodd" clip-rule="evenodd" d="M29.2998 63.8275H40.7437V44.6002C40.7437 43.5711 40.818 42.5431 41.1202 41.8075C41.9475 39.7516 43.8305 37.6222 46.9919 37.6222C51.133 37.6222 52.7895 40.7796 52.7895 45.4081V63.8275H64.2324V44.0856C64.2324 33.5102 58.5866 28.5893 51.0574 28.5893C44.8837 28.5893 42.1734 32.0401 40.6676 34.3905H40.744V29.3972H29.3001C29.4503 32.6279 29.2998 63.8275 29.2998 63.8275Z" fill="white"/>
</svg>
