<svg width="50" height="50" viewBox="0 0 50 50" fill="none" xmlns="http://www.w3.org/2000/svg">
<path d="M11.9048 0C5.34365 0 0 5.34365 0 11.9048V38.0952C0 44.6563 5.34365 50 11.9048 50H38.0952C44.6563 50 50 44.6563 50 38.0952V11.9048C50 5.34365 44.6563 0 38.0952 0H11.9048ZM10.7143 14.2857H39.2857C39.5 14.2857 39.7021 14.3099 39.8926 14.3694L28.1901 26.0603C26.4282 27.8222 23.5602 27.8222 21.7983 26.0603L10.1074 14.3694C10.2979 14.3099 10.5 14.2857 10.7143 14.2857ZM8.41704 16.0598L17.3689 25L8.41704 33.9402C8.35751 33.7497 8.33333 33.5476 8.33333 33.3333V16.6667C8.33333 16.4524 8.35751 16.2503 8.41704 16.0598ZM41.583 16.0598C41.6425 16.2503 41.6667 16.4524 41.6667 16.6667V33.3333C41.6667 33.5476 41.6425 33.7497 41.583 33.9402L32.6195 25L41.583 16.0598ZM19.0476 26.6788L20.1079 27.7507C21.4531 29.0959 23.2265 29.7619 24.9884 29.7619C26.7622 29.7619 28.5236 29.0959 29.8689 27.7507L30.9408 26.6788L39.8926 35.6306C39.7021 35.6901 39.5 35.7143 39.2857 35.7143H10.7143C10.5 35.7143 10.2979 35.6901 10.1074 35.6306L19.0476 26.6788Z" fill="black"/>
</svg>
