<svg width="125" height="125" viewBox="0 0 125 125" fill="none" xmlns="http://www.w3.org/2000/svg">
<path d="M29.7619 0C13.3591 0 0 13.3591 0 29.7619V95.2381C0 111.641 13.3591 125 29.7619 125H95.2381C111.641 125 125 111.641 125 95.2381V29.7619C125 13.3591 111.641 0 95.2381 0H29.7619ZM26.7857 35.7143H98.2143C98.75 35.7143 99.2553 35.7747 99.7314 35.9236L70.4753 65.1507C66.0705 69.5554 58.9004 69.5554 54.4957 65.1507L25.2686 35.9236C25.7447 35.7747 26.25 35.7143 26.7857 35.7143ZM21.0426 40.1495L43.4222 62.5L21.0426 84.8505C20.8938 84.3743 20.8333 83.8691 20.8333 83.3333V41.6667C20.8333 41.131 20.8938 40.6257 21.0426 40.1495ZM103.957 40.1495C104.106 40.6257 104.167 41.131 104.167 41.6667V83.3333C104.167 83.8691 104.106 84.3743 103.957 84.8505L81.5488 62.5L103.957 40.1495ZM47.619 66.6969L50.2697 69.3766C53.6328 72.7397 58.0662 74.4048 62.4709 74.4048C66.9055 74.4048 71.3091 72.7397 74.6722 69.3766L77.3519 66.6969L99.7314 89.0765C99.2553 89.2253 98.75 89.2857 98.2143 89.2857H26.7857C26.25 89.2857 25.7447 89.2253 25.2686 89.0765L47.619 66.6969Z" fill="white"/>
</svg>
