<?xml version="1.0" encoding="UTF-8"?>
<svg width="300" height="300" viewBox="0 0 300 300" fill="none" xmlns="http://www.w3.org/2000/svg">
<rect width="300" height="300" rx="150" fill="url(#paint0_radial_19_739)"/>
<line x1="258.385" y1="181.55" x2="258.385" y2="208.55" stroke="white" stroke-width="6" stroke-linecap="round"/>
<line x1="258.385" y1="162.551" x2="258.385" y2="169.551" stroke="white" stroke-width="6" stroke-linecap="round"/>
<path d="M202.418 208.55V181.028C202.418 170.823 211.396 162.55 222.47 162.55C233.545 162.55 242.522 170.823 242.522 181.028V189.588" stroke="white" stroke-width="6" stroke-linecap="round" stroke-linejoin="round"/>
<line x1="242.419" y1="208.588" x2="242.419" y2="201.588" stroke="white" stroke-width="6" stroke-linecap="round"/>
<line x1="186.385" y1="181.55" x2="186.385" y2="208.55" stroke="white" stroke-width="6" stroke-linecap="round"/>
<line x1="186.385" y1="162.551" x2="186.385" y2="169.551" stroke="white" stroke-width="6" stroke-linecap="round"/>
<line x1="141.385" y1="162.55" x2="141.385" y2="189.55" stroke="white" stroke-width="6" stroke-linecap="round"/>
<line x1="141.385" y1="201.55" x2="141.385" y2="208.55" stroke="white" stroke-width="6" stroke-linecap="round"/>
<mask id="path-10-inside-1_19_739" fill="white">
<path d="M174.262 169.56C175.577 168.569 175.853 166.681 174.685 165.52C172.426 163.274 169.676 161.561 166.635 160.527C162.649 159.172 158.347 159.045 154.288 160.163C150.229 161.281 146.6 163.593 143.872 166.799C142.324 168.617 141.107 170.676 140.261 172.881C139.187 175.678 141.405 178.401 144.385 178.724V178.724C144.71 175.728 146.463 172.958 148.416 170.662C150.369 168.367 152.967 166.712 155.874 165.911C158.78 165.111 161.86 165.201 164.714 166.172C166.622 166.821 168.369 167.842 169.861 169.167C171.092 170.26 172.946 170.551 174.262 169.56V169.56Z"/>
</mask>
<path d="M164.714 166.172L162.46 172.797L164.714 166.172ZM179.622 160.558C176.611 157.564 172.944 155.28 168.889 153.902L164.381 167.153C166.408 167.842 168.241 168.984 169.747 170.481L179.622 160.558ZM168.889 153.902C163.574 152.094 157.838 151.925 152.426 153.416L156.149 166.91C158.855 166.164 161.723 166.249 164.381 167.153L168.889 153.902ZM152.426 153.416C147.014 154.907 142.176 157.99 138.538 162.264L149.205 171.334C151.024 169.197 153.443 167.655 156.149 166.91L152.426 153.416ZM138.538 162.264C136.475 164.689 134.852 167.434 133.723 170.374L146.798 175.389C147.362 173.918 148.173 172.546 149.205 171.334L138.538 162.264ZM151.346 179.478C151.443 178.579 152.103 177.132 153.749 175.197L143.082 166.128C140.822 168.784 137.976 172.877 137.424 177.969L151.346 179.478ZM153.749 175.197C154.793 173.971 156.182 173.086 157.735 172.658L154.012 159.164C149.753 160.338 145.945 162.764 143.082 166.128L153.749 175.197ZM157.735 172.658C159.288 172.23 160.934 172.279 162.46 172.797L166.969 159.547C162.786 158.124 158.272 157.991 154.012 159.164L157.735 172.658ZM162.46 172.797C163.479 173.144 164.413 173.69 165.21 174.398L174.511 163.935C172.326 161.994 169.764 160.497 166.969 159.547L162.46 172.797ZM165.21 174.398C168.291 177.134 173.866 178.623 178.477 175.148L170.046 163.971C170.984 163.264 172.026 163.105 172.79 163.188C173.507 163.267 174.083 163.555 174.511 163.935L165.21 174.398ZM133.723 170.374C132.249 174.215 133.098 178.089 135.175 180.893C137.172 183.59 140.268 185.317 143.632 185.682L145.138 171.766C145.522 171.808 146.019 172.012 146.43 172.567C146.65 172.864 146.862 173.291 146.949 173.835C147.038 174.401 146.967 174.948 146.798 175.389L133.723 170.374ZM169.747 170.481C167.41 168.157 168.528 165.116 170.046 163.971L178.477 175.148C182.626 172.022 184.295 165.205 179.622 160.558L169.747 170.481Z" fill="white" mask="url(#path-10-inside-1_19_739)"/>
<mask id="path-12-inside-2_19_739" fill="white">
<path d="M189.953 92.6235C190.567 91.1694 189.89 89.4762 188.377 89.0252C183.097 87.4514 177.425 87.589 172.19 89.4613C166.053 91.656 160.963 96.0742 157.928 101.841C154.892 107.608 154.134 114.304 155.801 120.601C157.469 126.899 161.441 132.341 166.932 135.848C172.423 139.355 179.032 140.673 185.45 139.54C191.868 138.407 197.628 134.906 201.588 129.73C205.549 124.554 207.422 118.081 206.836 111.592C206.337 106.057 204.079 100.854 200.432 96.7257C199.387 95.5428 197.565 95.6393 196.504 96.808V96.808C195.442 97.9767 195.547 99.7731 196.555 100.988C199.16 104.128 200.771 108 201.142 112.108C201.599 117.17 200.138 122.22 197.048 126.258C193.958 130.295 189.465 133.027 184.458 133.91C179.451 134.794 174.295 133.767 170.012 131.03C165.728 128.294 162.629 124.05 161.328 119.136C160.028 114.223 160.62 109 162.987 104.501C165.355 100.002 169.326 96.5556 174.113 94.8435C177.998 93.4542 182.191 93.2893 186.136 94.3332C187.662 94.737 189.338 94.0776 189.953 92.6235V92.6235Z"/>
</mask>
<path d="M189.953 92.6235C190.567 91.1694 189.89 89.4762 188.377 89.0252C183.097 87.4514 177.425 87.589 172.19 89.4613C166.053 91.656 160.963 96.0742 157.928 101.841C154.892 107.608 154.134 114.304 155.801 120.601C157.469 126.899 161.441 132.341 166.932 135.848C172.423 139.355 179.032 140.673 185.45 139.54C191.868 138.407 197.628 134.906 201.588 129.73C205.549 124.554 207.422 118.081 206.836 111.592C206.337 106.057 204.079 100.854 200.432 96.7257C199.387 95.5428 197.565 95.6393 196.504 96.808V96.808C195.442 97.9767 195.547 99.7731 196.555 100.988C199.16 104.128 200.771 108 201.142 112.108C201.599 117.17 200.138 122.22 197.048 126.258C193.958 130.295 189.465 133.027 184.458 133.91C179.451 134.794 174.295 133.767 170.012 131.03C165.728 128.294 162.629 124.05 161.328 119.136C160.028 114.223 160.62 109 162.987 104.501C165.355 100.002 169.326 96.5556 174.113 94.8435C177.998 93.4542 182.191 93.2893 186.136 94.3332C187.662 94.737 189.338 94.0776 189.953 92.6235V92.6235Z" stroke="white" stroke-width="14" mask="url(#path-12-inside-2_19_739)"/>
<path d="M101.825 118.507C101.825 128.699 110.791 136.962 121.852 136.962C132.912 136.962 141.878 128.699 141.878 118.507V90.9615" stroke="white" stroke-width="6" stroke-linecap="round" stroke-linejoin="round"/>
<line x1="101.966" y1="90.9617" x2="101.966" y2="105.962" stroke="white" stroke-width="6" stroke-linecap="round"/>
<mask id="path-15-inside-3_19_739" fill="white">
<path d="M46.1593 98.0581C45.0128 96.9729 43.189 97.0143 42.2361 98.2729C38.9142 102.661 37.0547 108.013 36.9691 113.565C36.8687 120.074 39.2139 126.384 43.5411 131.248C47.8683 136.112 53.8627 139.175 60.3394 139.833C66.8161 140.491 73.3039 138.695 78.5205 134.8C83.7371 130.906 87.3028 125.196 88.5129 118.799C89.723 112.402 88.4894 105.785 85.056 100.254C81.6226 94.7226 76.2392 90.6808 69.9698 88.9272C64.6224 87.4314 58.9624 87.6931 53.8113 89.631C52.3337 90.1869 51.7757 91.9237 52.4904 93.3314V93.3314C53.205 94.7391 54.9217 95.2796 56.4159 94.7698C60.2735 93.4535 64.462 93.323 68.4298 94.4328C73.3206 95.8009 77.5203 98.9539 80.1988 103.269C82.8772 107.584 83.8396 112.746 82.8955 117.736C81.9515 122.726 79.1698 127.181 75.1003 130.219C71.0308 133.257 65.9696 134.658 60.917 134.145C55.8644 133.632 51.1881 131.242 47.8123 127.448C44.4366 123.654 42.6071 118.731 42.6854 113.653C42.749 109.534 44.0644 105.555 46.4228 102.231C47.3362 100.943 47.3059 99.1433 46.1593 98.0581V98.0581Z"/>
</mask>
<path d="M46.1593 98.0581C45.0128 96.9729 43.189 97.0143 42.2361 98.2729C38.9142 102.661 37.0547 108.013 36.9691 113.565C36.8687 120.074 39.2139 126.384 43.5411 131.248C47.8683 136.112 53.8627 139.175 60.3394 139.833C66.8161 140.491 73.3039 138.695 78.5205 134.8C83.7371 130.906 87.3028 125.196 88.5129 118.799C89.723 112.402 88.4894 105.785 85.056 100.254C81.6226 94.7226 76.2392 90.6808 69.9698 88.9272C64.6224 87.4314 58.9624 87.6931 53.8113 89.631C52.3337 90.1869 51.7757 91.9237 52.4904 93.3314V93.3314C53.205 94.7391 54.9217 95.2796 56.4159 94.7698C60.2735 93.4535 64.462 93.323 68.4298 94.4328C73.3206 95.8009 77.5203 98.9539 80.1988 103.269C82.8772 107.584 83.8396 112.746 82.8955 117.736C81.9515 122.726 79.1698 127.181 75.1003 130.219C71.0308 133.257 65.9696 134.658 60.917 134.145C55.8644 133.632 51.1881 131.242 47.8123 127.448C44.4366 123.654 42.6071 118.731 42.6854 113.653C42.749 109.534 44.0644 105.555 46.4228 102.231C47.3362 100.943 47.3059 99.1433 46.1593 98.0581V98.0581Z" stroke="white" stroke-width="14" mask="url(#path-15-inside-3_19_739)"/>
<line x1="85.9661" y1="90.9661" x2="85.9661" y2="150.966" stroke="white" stroke-width="6" stroke-linecap="round"/>
<defs>
<radialGradient id="paint0_radial_19_739" cx="0" cy="0" r="1" gradientUnits="userSpaceOnUse" gradientTransform="translate(150 150) rotate(90) scale(179)">
<stop stop-color="#750000"/>
<stop offset="1" stop-color="#210000"/>
</radialGradient>
</defs>
</svg>
