<svg width="173" height="173" viewBox="0 0 173 173" fill="none" xmlns="http://www.w3.org/2000/svg">
<path d="M86.5 173C134.273 173 173 134.273 173 86.5C173 38.7274 134.273 0 86.5 0C38.7274 0 0 38.7274 0 86.5C0 134.273 38.7274 173 86.5 173Z" fill="url(#paint0_linear_15_6)"/>
<path fill-rule="evenodd" clip-rule="evenodd" d="M39.1548 85.5869C64.3713 74.6005 81.1863 67.3576 89.5997 63.8582C113.622 53.8666 118.613 52.131 121.867 52.0736C122.582 52.061 124.182 52.2384 125.219 53.0793C126.094 53.7894 126.334 54.7486 126.45 55.4218C126.565 56.0951 126.708 57.6287 126.594 58.8271C125.292 72.5048 119.66 105.697 116.794 121.016C115.582 127.498 113.194 129.672 110.883 129.884C105.86 130.347 102.045 126.565 97.1799 123.376C89.5668 118.385 85.2658 115.278 77.876 110.409C69.3357 104.781 74.872 101.688 79.7391 96.6324C81.0128 95.3094 103.145 75.1783 103.574 73.3521C103.627 73.1237 103.677 72.2723 103.171 71.8228C102.665 71.3732 101.919 71.527 101.38 71.6492C100.617 71.8225 88.4545 79.8612 64.894 95.7652C61.4418 98.1358 58.315 99.2908 55.5134 99.2302C52.4249 99.1635 46.4839 97.484 42.0673 96.0483C36.6503 94.2874 32.3449 93.3564 32.7198 90.3659C32.9151 88.8083 35.0601 87.2153 39.1548 85.5869Z" fill="#2AABEE"/>
<defs>
<linearGradient id="paint0_linear_15_6" x1="86.5" y1="0" x2="86.5" y2="171.717" gradientUnits="userSpaceOnUse">
<stop stop-color="white"/>
<stop offset="1" stop-color="white"/>
</linearGradient>
</defs>
</svg>
