<svg width="233" height="233" viewBox="0 0 233 233" fill="none" xmlns="http://www.w3.org/2000/svg">
<g clip-path="url(#clip0_15_73)">
<path d="M116.5 233C180.841 233 233 180.841 233 116.5C233 52.1588 180.841 0 116.5 0C52.1588 0 0 52.1588 0 116.5C0 180.841 52.1588 233 116.5 233Z" fill="url(#paint0_linear_15_73)"/>
<path fill-rule="evenodd" clip-rule="evenodd" d="M52.7346 115.27C86.6967 100.473 109.343 90.7186 120.675 86.0055C153.028 72.5486 159.751 70.211 164.133 70.1338C165.096 70.1168 167.251 70.3557 168.647 71.4883C169.826 72.4446 170.15 73.7365 170.305 74.6433C170.46 75.55 170.653 77.6155 170.5 79.2295C168.747 97.6509 161.16 142.355 157.301 162.987C155.668 171.717 152.452 174.645 149.339 174.931C142.574 175.554 137.437 170.46 130.884 166.165C120.63 159.443 114.838 155.259 104.885 148.701C93.3829 141.121 100.839 136.955 107.394 130.146C109.11 128.365 138.918 101.252 139.495 98.7921C139.567 98.4845 139.634 97.3378 138.953 96.7324C138.272 96.1269 137.267 96.334 136.541 96.4986C135.513 96.732 119.132 107.559 87.4006 128.979C82.7512 132.171 78.5399 133.727 74.7667 133.645C70.607 133.555 62.6055 131.293 56.6572 129.36C49.3614 126.988 43.5628 125.734 44.0678 121.707C44.3308 119.609 47.2197 117.463 52.7346 115.27Z" fill="white"/>
</g>
<defs>
<linearGradient id="paint0_linear_15_73" x1="116.5" y1="0" x2="116.5" y2="231.272" gradientUnits="userSpaceOnUse">
<stop stop-color="#2AABEE"/>
<stop offset="1" stop-color="#229ED9"/>
</linearGradient>
<clipPath id="clip0_15_73">
<rect width="233" height="233" fill="white"/>
</clipPath>
</defs>
</svg>
