<svg width="124" height="101" viewBox="0 0 124 101" fill="none" xmlns="http://www.w3.org/2000/svg">
<path d="M110.542 24.9115C110.617 25.9971 110.617 27.0828 110.617 28.1785C110.617 61.5638 85.2019 100.067 38.7286 100.067V100.047C25.0002 100.067 11.557 96.1349 0 88.7203C1.99622 88.9605 4.00244 89.0806 6.01366 89.0856C17.3906 89.0956 28.4423 85.2782 37.3928 78.249C26.5812 78.0438 17.1004 70.9946 13.7884 60.7033C17.5757 61.4337 21.4781 61.2836 25.1953 60.268C13.4082 57.8866 4.928 47.5303 4.928 35.5029C4.928 35.3929 4.928 35.2878 4.928 35.1827C8.44014 37.1389 12.3725 38.2246 16.395 38.3447C5.29322 30.9251 1.87114 16.1562 8.57522 4.60912C21.403 20.3937 40.3296 29.9896 60.6469 31.0052C58.6107 22.2299 61.3924 13.0343 67.9564 6.86549C78.1326 -2.70033 94.1373 -2.21003 103.703 7.96116C109.362 6.84548 114.785 4.76922 119.748 1.82743C117.862 7.67599 113.914 12.644 108.641 15.8009C113.649 15.2106 118.542 13.8698 123.15 11.8235C119.758 16.9066 115.485 21.3343 110.542 24.9115Z" fill="#1D9BF0"/>
</svg>
