<svg width="184" height="149" viewBox="0 0 184 149" fill="none" xmlns="http://www.w3.org/2000/svg">
<path d="M164.597 37.0932C164.709 38.7097 164.709 40.3263 164.709 41.9577C164.709 91.6684 126.866 149 57.6668 149V148.97C37.2253 149 17.2084 143.145 0 132.104C2.97236 132.462 5.95962 132.641 8.95434 132.648C25.8946 132.663 42.3506 126.979 55.6778 116.513C39.5794 116.207 25.4625 105.711 20.5309 90.3871C26.1702 91.4747 31.9808 91.2512 37.5158 89.739C19.9647 86.193 7.33779 70.7725 7.33779 52.8638C7.33779 52.6999 7.33779 52.5435 7.33779 52.387C12.5674 55.2998 18.4227 56.9164 24.4121 57.0952C7.8816 46.0475 2.78612 24.0565 12.7685 6.86297C31.8691 30.3662 60.0507 44.6544 90.3032 46.1667C87.2712 33.1002 91.4132 19.408 101.187 10.2227C116.339 -4.02079 140.17 -3.29074 154.414 11.8542C162.839 10.1929 170.915 7.10136 178.305 2.72103C175.496 11.4295 169.618 18.8269 161.767 23.5276C169.224 22.6485 176.509 20.6521 183.37 17.6052C178.319 25.1739 171.958 31.7668 164.597 37.0932Z" fill="white"/>
</svg>
